<mxfile host="65bd71144e">
    <diagram id="hRT_k8z4fI0MmmZBzBQ3" name="Cat">
        <mxGraphModel dx="628" dy="537" grid="1" gridSize="10" guides="1" tooltips="1" connect="1" arrows="1" fold="1" page="1" pageScale="1" pageWidth="827" pageHeight="1169" math="0" shadow="0">
            <root>
                <mxCell id="0"/>
                <mxCell id="1" parent="0"/>
                <mxCell id="2" value="Cat" style="swimlane;fontStyle=1;align=center;verticalAlign=top;childLayout=stackLayout;horizontal=1;startSize=26;horizontalStack=0;resizeParent=1;resizeParentMax=0;resizeLast=0;collapsible=1;marginBottom=0;" vertex="1" parent="1">
                    <mxGeometry x="150" y="90" width="300" height="294" as="geometry"/>
                </mxCell>
                <mxCell id="6" value="- firstName: String" style="text;strokeColor=none;fillColor=none;align=left;verticalAlign=top;spacingLeft=4;spacingRight=4;overflow=hidden;rotatable=0;points=[[0,0.5],[1,0.5]];portConstraint=eastwest;" vertex="1" parent="2">
                    <mxGeometry y="26" width="300" height="26" as="geometry"/>
                </mxCell>
                <mxCell id="12" value="- furColor: String" style="text;strokeColor=none;fillColor=none;align=left;verticalAlign=top;spacingLeft=4;spacingRight=4;overflow=hidden;rotatable=0;points=[[0,0.5],[1,0.5]];portConstraint=eastwest;" vertex="1" parent="2">
                    <mxGeometry y="52" width="300" height="26" as="geometry"/>
                </mxCell>
                <mxCell id="3" value="- age : int" style="text;strokeColor=none;fillColor=none;align=left;verticalAlign=top;spacingLeft=4;spacingRight=4;overflow=hidden;rotatable=0;points=[[0,0.5],[1,0.5]];portConstraint=eastwest;" vertex="1" parent="2">
                    <mxGeometry y="78" width="300" height="26" as="geometry"/>
                </mxCell>
                <mxCell id="4" value="" style="line;strokeWidth=1;fillColor=none;align=left;verticalAlign=middle;spacingTop=-1;spacingLeft=3;spacingRight=3;rotatable=0;labelPosition=right;points=[];portConstraint=eastwest;strokeColor=inherit;" vertex="1" parent="2">
                    <mxGeometry y="104" width="300" height="8" as="geometry"/>
                </mxCell>
                <mxCell id="5" value="+ Cat(String, String, int): type" style="text;strokeColor=none;fillColor=none;align=left;verticalAlign=top;spacingLeft=4;spacingRight=4;overflow=hidden;rotatable=0;points=[[0,0.5],[1,0.5]];portConstraint=eastwest;" vertex="1" parent="2">
                    <mxGeometry y="112" width="300" height="26" as="geometry"/>
                </mxCell>
                <mxCell id="8" value="+ getFirstName(): String" style="text;strokeColor=none;fillColor=none;align=left;verticalAlign=top;spacingLeft=4;spacingRight=4;overflow=hidden;rotatable=0;points=[[0,0.5],[1,0.5]];portConstraint=eastwest;" vertex="1" parent="2">
                    <mxGeometry y="138" width="300" height="26" as="geometry"/>
                </mxCell>
                <mxCell id="9" value="- getPermission(): boolean" style="text;strokeColor=none;fillColor=none;align=left;verticalAlign=top;spacingLeft=4;spacingRight=4;overflow=hidden;rotatable=0;points=[[0,0.5],[1,0.5]];portConstraint=eastwest;" vertex="1" parent="2">
                    <mxGeometry y="164" width="300" height="26" as="geometry"/>
                </mxCell>
                <mxCell id="11" value="+ getFurColor(): String" style="text;strokeColor=none;fillColor=none;align=left;verticalAlign=top;spacingLeft=4;spacingRight=4;overflow=hidden;rotatable=0;points=[[0,0.5],[1,0.5]];portConstraint=eastwest;" vertex="1" parent="2">
                    <mxGeometry y="190" width="300" height="26" as="geometry"/>
                </mxCell>
                <mxCell id="13" value="+ getAge(): int" style="text;strokeColor=none;fillColor=none;align=left;verticalAlign=top;spacingLeft=4;spacingRight=4;overflow=hidden;rotatable=0;points=[[0,0.5],[1,0.5]];portConstraint=eastwest;" vertex="1" parent="2">
                    <mxGeometry y="216" width="300" height="26" as="geometry"/>
                </mxCell>
                <mxCell id="14" value="+ setAge(type): void" style="text;strokeColor=none;fillColor=none;align=left;verticalAlign=top;spacingLeft=4;spacingRight=4;overflow=hidden;rotatable=0;points=[[0,0.5],[1,0.5]];portConstraint=eastwest;" vertex="1" parent="2">
                    <mxGeometry y="242" width="300" height="26" as="geometry"/>
                </mxCell>
                <mxCell id="15" value="+ getInstanceVariable(): Cat" style="text;strokeColor=none;fillColor=none;align=left;verticalAlign=top;spacingLeft=4;spacingRight=4;overflow=hidden;rotatable=0;points=[[0,0.5],[1,0.5]];portConstraint=eastwest;" vertex="1" parent="2">
                    <mxGeometry y="268" width="300" height="26" as="geometry"/>
                </mxCell>
            </root>
        </mxGraphModel>
    </diagram>
    <diagram name="App - Cat" id="q38TZxkuHgIWiCPKLgzs">
        <mxGraphModel dx="628" dy="537" grid="1" gridSize="10" guides="1" tooltips="1" connect="1" arrows="1" fold="1" page="1" pageScale="1" pageWidth="827" pageHeight="1169" math="0" shadow="0">
            <root>
                <mxCell id="5avoadOySHUqAjYkOSw4-0"/>
                <mxCell id="5avoadOySHUqAjYkOSw4-1" parent="5avoadOySHUqAjYkOSw4-0"/>
                <mxCell id="5avoadOySHUqAjYkOSw4-2" value="Cat" style="swimlane;fontStyle=1;align=center;verticalAlign=top;childLayout=stackLayout;horizontal=1;startSize=26;horizontalStack=0;resizeParent=1;resizeParentMax=0;resizeLast=0;collapsible=1;marginBottom=0;" vertex="1" parent="5avoadOySHUqAjYkOSw4-1">
                    <mxGeometry x="380" y="140" width="300" height="294" as="geometry"/>
                </mxCell>
                <mxCell id="5avoadOySHUqAjYkOSw4-3" value="- firstName: String" style="text;strokeColor=none;fillColor=none;align=left;verticalAlign=top;spacingLeft=4;spacingRight=4;overflow=hidden;rotatable=0;points=[[0,0.5],[1,0.5]];portConstraint=eastwest;" vertex="1" parent="5avoadOySHUqAjYkOSw4-2">
                    <mxGeometry y="26" width="300" height="26" as="geometry"/>
                </mxCell>
                <mxCell id="5avoadOySHUqAjYkOSw4-4" value="- furColor: String" style="text;strokeColor=none;fillColor=none;align=left;verticalAlign=top;spacingLeft=4;spacingRight=4;overflow=hidden;rotatable=0;points=[[0,0.5],[1,0.5]];portConstraint=eastwest;" vertex="1" parent="5avoadOySHUqAjYkOSw4-2">
                    <mxGeometry y="52" width="300" height="26" as="geometry"/>
                </mxCell>
                <mxCell id="5avoadOySHUqAjYkOSw4-5" value="- age : int" style="text;strokeColor=none;fillColor=none;align=left;verticalAlign=top;spacingLeft=4;spacingRight=4;overflow=hidden;rotatable=0;points=[[0,0.5],[1,0.5]];portConstraint=eastwest;" vertex="1" parent="5avoadOySHUqAjYkOSw4-2">
                    <mxGeometry y="78" width="300" height="26" as="geometry"/>
                </mxCell>
                <mxCell id="5avoadOySHUqAjYkOSw4-6" value="" style="line;strokeWidth=1;fillColor=none;align=left;verticalAlign=middle;spacingTop=-1;spacingLeft=3;spacingRight=3;rotatable=0;labelPosition=right;points=[];portConstraint=eastwest;strokeColor=inherit;" vertex="1" parent="5avoadOySHUqAjYkOSw4-2">
                    <mxGeometry y="104" width="300" height="8" as="geometry"/>
                </mxCell>
                <mxCell id="5avoadOySHUqAjYkOSw4-7" value="+ Cat(String, String, int): type" style="text;strokeColor=none;fillColor=none;align=left;verticalAlign=top;spacingLeft=4;spacingRight=4;overflow=hidden;rotatable=0;points=[[0,0.5],[1,0.5]];portConstraint=eastwest;" vertex="1" parent="5avoadOySHUqAjYkOSw4-2">
                    <mxGeometry y="112" width="300" height="26" as="geometry"/>
                </mxCell>
                <mxCell id="5avoadOySHUqAjYkOSw4-8" value="+ getFirstName(): String" style="text;strokeColor=none;fillColor=none;align=left;verticalAlign=top;spacingLeft=4;spacingRight=4;overflow=hidden;rotatable=0;points=[[0,0.5],[1,0.5]];portConstraint=eastwest;" vertex="1" parent="5avoadOySHUqAjYkOSw4-2">
                    <mxGeometry y="138" width="300" height="26" as="geometry"/>
                </mxCell>
                <mxCell id="5avoadOySHUqAjYkOSw4-9" value="- getPermission(): boolean" style="text;strokeColor=none;fillColor=none;align=left;verticalAlign=top;spacingLeft=4;spacingRight=4;overflow=hidden;rotatable=0;points=[[0,0.5],[1,0.5]];portConstraint=eastwest;" vertex="1" parent="5avoadOySHUqAjYkOSw4-2">
                    <mxGeometry y="164" width="300" height="26" as="geometry"/>
                </mxCell>
                <mxCell id="5avoadOySHUqAjYkOSw4-10" value="+ getFurColor(): String" style="text;strokeColor=none;fillColor=none;align=left;verticalAlign=top;spacingLeft=4;spacingRight=4;overflow=hidden;rotatable=0;points=[[0,0.5],[1,0.5]];portConstraint=eastwest;" vertex="1" parent="5avoadOySHUqAjYkOSw4-2">
                    <mxGeometry y="190" width="300" height="26" as="geometry"/>
                </mxCell>
                <mxCell id="5avoadOySHUqAjYkOSw4-11" value="+ getAge(): int" style="text;strokeColor=none;fillColor=none;align=left;verticalAlign=top;spacingLeft=4;spacingRight=4;overflow=hidden;rotatable=0;points=[[0,0.5],[1,0.5]];portConstraint=eastwest;" vertex="1" parent="5avoadOySHUqAjYkOSw4-2">
                    <mxGeometry y="216" width="300" height="26" as="geometry"/>
                </mxCell>
                <mxCell id="5avoadOySHUqAjYkOSw4-12" value="+ setAge(type): void" style="text;strokeColor=none;fillColor=none;align=left;verticalAlign=top;spacingLeft=4;spacingRight=4;overflow=hidden;rotatable=0;points=[[0,0.5],[1,0.5]];portConstraint=eastwest;" vertex="1" parent="5avoadOySHUqAjYkOSw4-2">
                    <mxGeometry y="242" width="300" height="26" as="geometry"/>
                </mxCell>
                <mxCell id="5avoadOySHUqAjYkOSw4-13" value="+ getInstanceVariable(): Cat" style="text;strokeColor=none;fillColor=none;align=left;verticalAlign=top;spacingLeft=4;spacingRight=4;overflow=hidden;rotatable=0;points=[[0,0.5],[1,0.5]];portConstraint=eastwest;" vertex="1" parent="5avoadOySHUqAjYkOSw4-2">
                    <mxGeometry y="268" width="300" height="26" as="geometry"/>
                </mxCell>
                <mxCell id="GP3PPr8pQmtMefCmOSR--0" value="App" style="swimlane;fontStyle=1;align=center;verticalAlign=top;childLayout=stackLayout;horizontal=1;startSize=26;horizontalStack=0;resizeParent=1;resizeParentMax=0;resizeLast=0;collapsible=1;marginBottom=0;" vertex="1" parent="5avoadOySHUqAjYkOSw4-1">
                    <mxGeometry x="50" y="140" width="160" height="86" as="geometry"/>
                </mxCell>
                <mxCell id="GP3PPr8pQmtMefCmOSR--2" value="" style="line;strokeWidth=1;fillColor=none;align=left;verticalAlign=middle;spacingTop=-1;spacingLeft=3;spacingRight=3;rotatable=0;labelPosition=right;points=[];portConstraint=eastwest;strokeColor=inherit;" vertex="1" parent="GP3PPr8pQmtMefCmOSR--0">
                    <mxGeometry y="26" width="160" height="8" as="geometry"/>
                </mxCell>
                <mxCell id="GP3PPr8pQmtMefCmOSR--3" value="+ main(String[]): void" style="text;strokeColor=none;fillColor=none;align=left;verticalAlign=top;spacingLeft=4;spacingRight=4;overflow=hidden;rotatable=0;points=[[0,0.5],[1,0.5]];portConstraint=eastwest;fontStyle=4" vertex="1" parent="GP3PPr8pQmtMefCmOSR--0">
                    <mxGeometry y="34" width="160" height="26" as="geometry"/>
                </mxCell>
                <mxCell id="GP3PPr8pQmtMefCmOSR--4" value="+ output(String): void" style="text;strokeColor=none;fillColor=none;align=left;verticalAlign=top;spacingLeft=4;spacingRight=4;overflow=hidden;rotatable=0;points=[[0,0.5],[1,0.5]];portConstraint=eastwest;fontStyle=4" vertex="1" parent="GP3PPr8pQmtMefCmOSR--0">
                    <mxGeometry y="60" width="160" height="26" as="geometry"/>
                </mxCell>
                <mxCell id="GP3PPr8pQmtMefCmOSR--5" value="" style="endArrow=open;endFill=1;endSize=12;html=1;exitX=1;exitY=0.5;exitDx=0;exitDy=0;entryX=0.005;entryY=0.808;entryDx=0;entryDy=0;entryPerimeter=0;" edge="1" parent="5avoadOySHUqAjYkOSw4-1" source="GP3PPr8pQmtMefCmOSR--3" target="5avoadOySHUqAjYkOSw4-3">
                    <mxGeometry width="160" relative="1" as="geometry">
                        <mxPoint x="220" y="190" as="sourcePoint"/>
                        <mxPoint x="380" y="190" as="targetPoint"/>
                    </mxGeometry>
                </mxCell>
            </root>
        </mxGraphModel>
    </diagram>
</mxfile>